<svg xmlns="http://www.w3.org/2000/svg" width="128" height="128" viewBox="0 0 24 24" fill="none">
  <rect width="24" height="24" rx="4" fill="#fff"/>
  <g fill="#111">
    <path d="M7.2 3.2a2.4 2.4 0 1 0 0 4.8 2.4 2.4 0 0 0 0-4.8Z"/>
    <path d="M16.8 3.2a2.4 2.4 0 1 0 0 4.8 2.4 2.4 0 0 0 0-4.8Z"/>
    <path d="M7.6 9.8c.5-1.2 1.6-1.8 2.6-1.3s1.3 1.8.8 3-1.6 1.8-2.6 1.3-1.3-1.8-.8-3Z"/>
    <path d="M13.8 8.5c1-.5 2.1.1 2.6 1.3s.2 2.5-.8 3-2.1-.1-2.6-1.3-.2-2.5.8-3Z"/>
    <path d="M10.9 13.6c0-.6.5-.9 1.1-.9s1.1.3 1.1.9-.5 1-1.1 1-1.1-.4-1.1-1Z"/>
    <path d="M5.2 13.7a2.8 1.9 0 1 0 0 3.8 2.8 1.9 0 0 0 0-3.8Z"/>
    <path d="M18.8 14.1a2.8 1.9 0 1 0 0 3.8 2.8 1.9 0 0 0 0-3.8Z"/>
  </g>
  <g stroke="#111" stroke-width="1.8" stroke-linecap="round" stroke-linejoin="round">
    <path d="M5 17c-.8-6.4 2.1-10.8 7-10.8s7.8 4.4 7 10.8"/>
    <path d="M12 14.6v.7c0 .7-.6 1.2-1.3 1.2m1.3-1.2c0 .7.6 1.2 1.3 1.2"/>
    <path d="M2 17h20"/>
  </g>
</svg>
